<svg viewBox="0 0 135 43" xmlns="http://www.w3.org/2000/svg" data-logo="logo">
        <g transform="translate(0, 1) rotate(0)" id="logogram" style="opacity: 1;"><path fill="#F59E0B" d="M0.603516 15.43V31.43H5.60352C6.12878 31.43 6.64893 31.5334 7.13428 31.7345C7.61951 31.9355 8.06055 32.2301 8.43188 32.6016C8.80334 32.973 9.09802 33.414 9.29907 33.8993C9.5 34.3846 9.60352 34.9047 9.60352 35.43V40.43H21.6035L36.6035 25.43V9.42999H31.6035C31.0782 9.42999 30.5581 9.32654 30.0728 9.12552C29.5875 8.9245 29.1465 8.62985 28.7751 8.25842C28.4037 7.88699 28.109 7.44601 27.908 6.96072C27.707 6.47543 27.6035 5.95529 27.6035 5.42999V0.429993H15.6035L0.603516 15.43ZM17.6035 30.43H10.6035V19.43L19.6035 10.43H26.6035V21.43L17.6035 30.43Z" clip-rule="evenodd" fill-rule="evenodd"></path></g>
        <g transform="translate(43, 8.5)" id="logotype" style="opacity: 1;"><path d="M17.50 26.39L17.50 26.39Q14.54 26.39 12.37 25.47Q10.19 24.55 8.96 22.79Q7.73 21.03 7.62 18.51L7.62 18.51L12.12 18.51Q12.24 19.85 12.96 20.74Q13.67 21.63 14.85 22.06Q16.03 22.50 17.47 22.50L17.47 22.50Q18.97 22.50 20.12 22.04Q21.28 21.57 21.93 20.74Q22.58 19.92 22.58 18.82L22.58 18.82Q22.58 17.83 22.00 17.18Q21.43 16.53 20.40 16.08Q19.36 15.63 17.98 15.28L17.98 15.28L15.09 14.53Q11.90 13.71 10.11 12.05Q8.32 10.40 8.32 7.70L8.32 7.70Q8.32 5.44 9.54 3.75Q10.75 2.06 12.85 1.13Q14.96 0.19 17.62 0.19L17.62 0.19Q20.34 0.19 22.39 1.13Q24.44 2.07 25.59 3.73Q26.75 5.39 26.80 7.51L26.80 7.51L22.37 7.51Q22.20 5.87 20.91 4.97Q19.62 4.07 17.55 4.07L17.55 4.07Q16.12 4.07 15.08 4.51Q14.05 4.95 13.49 5.70Q12.94 6.45 12.94 7.42L12.94 7.42Q12.94 8.48 13.60 9.17Q14.25 9.85 15.25 10.26Q16.25 10.67 17.28 10.93L17.28 10.93L19.65 11.54Q21.07 11.88 22.41 12.45Q23.74 13.01 24.81 13.87Q25.88 14.74 26.51 15.97Q27.14 17.20 27.14 18.86L27.14 18.86Q27.14 21.10 26.00 22.80Q24.85 24.50 22.70 25.44Q20.54 26.39 17.50 26.39ZM37.14 26.39L37.14 26.39Q34.35 26.39 32.30 25.15Q30.25 23.92 29.13 21.70Q28.01 19.49 28.01 16.55L28.01 16.55Q28.01 13.58 29.13 11.35Q30.25 9.12 32.30 7.88Q34.35 6.65 37.14 6.65L37.14 6.65Q39.94 6.65 41.99 7.88Q44.04 9.12 45.16 11.35Q46.28 13.58 46.28 16.55L46.28 16.55Q46.28 19.49 45.16 21.70Q44.04 23.92 41.99 25.15Q39.94 26.39 37.14 26.39ZM37.14 22.79L37.14 22.79Q38.69 22.79 39.72 21.95Q40.76 21.11 41.26 19.69Q41.77 18.28 41.77 16.53L41.77 16.53Q41.77 14.77 41.26 13.35Q40.76 11.94 39.72 11.10Q38.69 10.26 37.14 10.26L37.14 10.26Q35.58 10.26 34.56 11.10Q33.55 11.94 33.04 13.34Q32.54 14.75 32.54 16.53L32.54 16.53Q32.54 18.28 33.04 19.69Q33.55 21.11 34.56 21.95Q35.58 22.79 37.14 22.79ZM47.88 0.54L52.33 0.54L52.33 26L47.88 26L47.88 0.54ZM54.82 13.56L66.27 13.56L66.27 17.23L54.82 17.23L54.82 13.56ZM72.57 26L67.33 26L77.65 11.29L77.65 14.72L68.06 0.54L73.34 0.54L76.44 5.18Q77.22 6.38 77.73 7.30Q78.25 8.23 78.67 9.09Q79.10 9.95 79.61 10.96L79.61 10.96L78.50 10.96Q79.03 9.95 79.46 9.10Q79.89 8.24 80.41 7.31Q80.93 6.38 81.73 5.18L81.73 5.18L84.88 0.54L90.04 0.54L80.55 14.50L80.55 11.18L90.71 26L85.34 26L81.48 20.29Q80.78 19.22 80.32 18.46Q79.87 17.71 79.50 17.01Q79.12 16.31 78.62 15.39L78.62 15.39L79.41 15.39Q78.93 16.28 78.56 16.98Q78.18 17.68 77.72 18.45Q77.26 19.22 76.50 20.29L76.50 20.29L72.57 26Z" fill="#ffffff"></path></g>
        
      </svg>